<svg width="288" height="430" viewBox="0 0 288 430" fill="none" xmlns="http://www.w3.org/2000/svg">
<path d="M119.59 245.74C119.35 242.05 118.87 238.36 118.37 234.7C117.66 229.55 116.9 222.55 115.63 217.65C115.28 216.29 113.05 214.89 111.89 214.01C90.0701 197.61 57.15 194.42 32.17 183.83C16.92 177.36 4.89005 167.96 0.550049 151.19L17.68 154.73C12.67 137.01 23.97 117.42 42.14 113.74C74.1 107.28 95.08 143.91 73.37 168.33C72.39 169.43 71.21 170.26 70.16 171.26C69.91 171.5 69.89 171.46 69.97 171.87C84.61 177.56 98.96 184.77 111.03 194.92C98.66 149.1 79.9601 104.77 55.8801 63.99C41.1501 68.76 29.0601 55.1 21.5701 44.3C20.8401 43.25 19.29 41.25 18.83 40.23C18.29 39.04 19.9901 38.54 20.9901 38.21C24.7001 37.01 28.63 37.43 32.44 37.7C32.89 27.35 43.84 22.28 52.64 27.09C54.07 24.65 55.8501 22.42 57.9901 20.56C58.5101 20.11 60.76 18.08 61.37 18.52C69.23 32.16 72.99 53.4 57.56 63.27C62.84 71.58 67.42 80.35 71.89 89.12C89.44 123.56 103.55 159.8 113.62 197.2C121.68 205.17 128.75 214.45 131.55 225.66L131.99 225.95C132.17 225.52 131.7 225.09 131.7 224.92V115.14C115.9 114.63 100.93 106.03 93 92.39H172.17C172.77 92.92 167.49 99.25 166.86 99.93C158.31 109.2 145.78 114.67 133.18 115.14C133.07 115.46 133.47 115.79 133.47 115.88V202.02L136.2 192.79C146.9 164.76 173.83 148.2 200.44 137.52C208.76 123.67 218.42 110.7 228.57 98.15C222.34 93.17 216.82 86.41 214.84 78.5C211.11 63.52 221.62 51.35 236.93 57C237.69 57.28 239.8 58.59 240.25 58.59C240.7 58.59 242.8 57.28 243.57 57C258.24 51.71 270.47 63.47 267.44 78.22C273.91 84.05 275.45 94.31 269.79 101.26C260.55 112.61 239.48 108.05 229.91 99.2C221.53 109.71 213.2 120.34 206.01 131.72C205.11 133.15 203.92 134.7 203.47 136.27C225.82 127.63 248.98 121.21 272.17 115.15C272.65 115.09 272.64 115.09 272.58 115.56C272.22 118.54 270.6 122.52 269.2 125.19C254.59 153.02 212.25 157.52 185.58 167.14C174.6 187.71 165.32 209.31 158.27 231.57L165.12 220.84C171.97 211.23 180.5 203.18 190.5 196.87C209.89 184.63 233.17 180.27 255.87 179.22L256.31 178.78C256.81 166.27 271.45 159.37 281.56 166.9C291.67 174.43 289.32 190.11 277.7 194.56C267.65 198.41 257.11 191.6 256.22 181.02C255.98 180.68 255.41 180.71 255.02 180.72C250.6 180.77 245.03 181.43 240.58 181.96C207.39 185.94 178.08 200.14 161.17 229.89C158.39 234.79 155.72 240.29 154.43 245.75H181.76C183.67 245.75 182.23 248.34 181.61 249.14C174.86 257.86 157.54 260.86 157.67 274.86C157.77 286.14 171.28 303.4 176.94 313.52C183.24 324.76 187.25 335.64 187.83 348.72C187.6 374.63 188.08 400.56 187.83 426.47C187.83 426.96 187.52 427.57 187.53 427.64C187.57 428.35 188.22 427.78 188.26 427.78H240.84C240.89 427.78 241.54 428.08 241.6 428.26C241.7 428.62 241.46 429.55 241.14 429.55H24.6001L24.15 428.81C24.13 428.51 24.77 427.78 24.9 427.78H83.5401V345.47C84.3601 333.26 88.9801 322.45 95.0101 312.04C100.64 302.33 113.33 286.28 113.4 275.15C113.48 261.83 99.48 257.97 91.21 250.63C90.62 250.11 88.5401 248.12 88.3801 247.53C88.2201 246.94 88.99 245.75 89.3 245.75H119.58L119.59 245.74ZM60.78 21.17C59.97 20.59 57.21 23.63 56.68 24.26C51.81 30 50.02 37.5 50.47 44.93C50.52 45.7 51.35 48.12 50.78 48.5C49.4 49.4 47.7201 46.75 46.7701 45.98C40.83 41.2 32.31 38.49 24.66 39.21C24.01 39.27 21.41 39.64 21.23 40.23C21.05 40.82 25.12 46.21 25.83 47.12C32.86 56.13 46.7901 69.63 58.7101 60.28C70.2901 51.19 67.02 32.5 60.78 21.17ZM229.78 57.2C223.98 56.96 218.74 60.84 216.77 66.21C212.87 76.86 220.07 88.98 228.15 95.62C228.93 95.68 228.43 95.49 228.38 95.1C227.5 89.13 227.67 84.96 228.38 79.01C229.21 72.02 229.22 66.4 229.46 59.41C229.49 58.66 229.82 57.97 229.77 57.21L229.78 57.2ZM238.65 59.57C236.26 58.56 233.88 57.5 231.27 57.2L230.98 69.61L234.4 64.02L238.66 59.57H238.65ZM230.08 96.21C240.59 85.09 249.92 72.95 259.33 60.9C260.19 60 257.4 58.84 256.66 58.54C251.41 56.38 245.9 57.26 241.11 60.11C229.68 66.89 228.28 84.37 230.08 96.21ZM231.26 97.98C239.45 98.02 247.93 96.04 254.87 91.6C265.62 84.73 271.16 71.43 260.95 61.34L231.26 97.98ZM271.13 87.33C271.64 86.61 268.04 80.38 266.71 79.95C265.27 84.66 261.7 88.26 258.14 91.47L271.13 87.32V87.33ZM271.73 89.11C265.7 90.75 259.52 92.47 253.55 94.42C251.15 95.2 248.9 96.48 246.32 97.24C242.26 98.43 237.71 99.32 233.47 99.46L233.32 100.05C246.13 109.03 272.37 110.52 271.72 89.12L271.73 89.11ZM74.4 163.58C74.94 163.99 76.52 161.05 76.81 160.53C87.69 140.99 73.98 116.21 51.81 114.81C25.05 113.11 8.85004 142.06 24.03 163.88C35.34 145.26 61.62 144.53 74.06 162.61C74.26 162.9 74.38 163.24 74.41 163.59L74.4 163.58ZM270.55 117.19C250.21 122.54 229.84 128.12 210.13 135.51C186.61 144.33 161.85 156.16 146.65 176.92C140.58 185.21 136.81 194.31 134.65 204.37C135.44 204.52 135.17 204.21 135.37 203.78C153.72 166.08 193.78 164.8 229.04 152.37C246.37 146.26 265.41 136.32 270.54 117.2L270.55 117.19ZM18.2 156.55C14.61 155.65 11.03 154.65 7.39005 153.92C5.95005 153.63 4.35005 153.08 2.91005 153.38C9.73005 174.43 29.5601 181.8 48.7701 187.89C79.16 197.52 117.55 203.06 131.05 236.22C131.23 236.66 130.87 237.02 131.71 236.87C129.87 202.63 96.52 184.08 68.29 172.8C50.45 185.35 25.24 177.12 18.22 156.55H18.2ZM269.89 165.44C259.99 166.63 254.84 178.23 259.57 186.83C264.82 196.39 278.58 196.46 284.26 187.2C290.71 176.68 282.1 163.97 269.89 165.44ZM133.48 212.2V245.74H152.68C154.4 240.3 155.65 234.71 157.33 229.26C163.83 208.1 173.52 187.89 183.11 168.02C163.27 174.17 145.67 184.77 136.77 204.26C136.07 205.79 133.72 210.9 133.48 212.2ZM131.7 245.74C131.57 239.4 128.1 232.48 124.62 227.26C122.66 224.32 120.15 221.03 117.38 218.84L121.51 245.73H131.7V245.74ZM124.91 315.18C124.32 315.16 123.72 315.2 123.14 315.18L122.86 282.51C121.97 270.83 121.47 259.11 119.89 247.5H91.09C90.96 247.5 90.3101 246.67 90.3501 247.64C98.4301 255.75 113.85 259.78 114.86 273.06C115.8 285.33 104.03 300.27 97.9 310.46C97 311.96 95.99 313.53 95.36 315.16H122.83V375L124.9 375.44C124.79 355.35 125.04 335.24 124.9 315.15C127.08 315.23 129.51 315.23 131.69 315.15C131.69 343.61 131.58 372.13 131.82 400.57C132.21 401.13 133.76 400.84 133.76 400.41V315.15C136.41 315.15 139.08 315.15 141.74 315.15C140.59 347.48 142 380.12 141.43 412.54C141.51 414.42 143.84 413.51 143.53 411.95C143.8 379.7 143.24 347.33 143.22 315.15C154.05 315.1 164.89 315.19 175.71 315.15C172.08 307.45 166.81 300.62 162.66 293.19C157.45 283.85 151.94 272.06 160.92 262.98C166.65 257.2 175.26 253.82 180.72 247.62C180.77 246.65 180.12 247.48 179.98 247.48H153.54C150.67 257.85 148.21 268.35 146.5 279C144.64 290.62 143.19 303.38 143.2 315.15C142.71 315.15 142.22 315.15 141.72 315.15C142.11 304.24 142.86 293.65 144.43 282.84C146.16 270.91 148.68 259.03 152.06 247.48H134.19C134.09 247.48 133.56 246.89 133.45 247.33V315.15C132.86 315.17 132.27 315.13 131.68 315.15C131.68 312.53 131.67 309.7 131.67 307.04C131.67 287.19 131.7 267.33 131.68 247.48H122.08C122.08 247.48 121.39 246.91 121.35 247.62C121.35 247.68 121.63 248.12 121.64 248.5C121.81 253.53 122.71 258.82 123.11 263.88C124.48 281.03 124.76 297.94 124.89 315.15L124.91 315.18Z" fill="#B1C6FF"/>
<path d="M128.1 0.550087C160.38 -2.08991 182.52 29.9001 166.02 58.5801C150.42 85.7001 110.26 83.7601 97.18 55.5301C86.08 31.5701 101.45 2.73009 128.1 0.550087ZM162.72 60.4501C171.12 47.8801 172.2 31.8801 163.85 18.9901C149.73 -2.80991 116.87 -3.44992 101.92 17.8101C93.03 30.4501 93.29 47.9801 102.31 60.4601C108.22 47.4001 123.11 40.3101 137.13 42.1801C146.48 43.4301 156.25 49.3601 161.07 57.5301C161.32 57.9501 162.45 60.6401 162.72 60.4601V60.4501Z" fill="#B1C6FF"/>
<path d="M46.84 123.47C63.76 120.61 64.29 145.97 47.99 144.34C36.15 143.16 35.77 125.34 46.84 123.47Z" fill="#B1C6FF"/>
<path d="M131.35 11.4799C146.97 10.3999 148.36 33.5999 133.32 34.7399C118.28 35.8799 116.05 12.5499 131.35 11.4799Z" fill="#B1C6FF"/>
</svg>
