<svg width="380" height="448" viewBox="0 0 380 448" fill="none" xmlns="http://www.w3.org/2000/svg">
<g clip-path="url(#clip0_1106_6780)" filter="url(#filter0_d_1106_6780)">
<path d="M144.909 214.359C67.0148 214.359 4 277.425 4 355.384V414.615C4 428.633 15.3576 440 29.3635 440H96.9998L164.636 214.359H144.909Z" fill="#86A9FF"/>
<path d="M376 307.436C376 255.989 334.403 214.359 283 214.359H215.364V440H283C334.404 440 376 398.369 376 346.923" fill="#578CFF"/>
<path d="M71.6362 307.436C71.6362 255.989 113.233 214.359 164.636 214.359H215.363C266.767 214.359 308.363 255.99 308.363 307.436V346.923C308.363 398.37 266.766 440 215.363 440H96.9997C82.9938 440 71.6362 428.633 71.6362 414.615V307.436Z" fill="#0057CC"/>
<path d="M190 174.872C238.249 174.872 277.363 135.725 277.363 87.4359C277.363 39.1464 238.249 0 190 0C141.75 0 102.636 39.1464 102.636 87.4359C102.636 135.725 141.75 174.872 190 174.872Z" fill="#0057CC"/>
</g>
<defs>
<filter id="filter0_d_1106_6780" x="0" y="0" width="380" height="448" filterUnits="userSpaceOnUse" color-interpolation-filters="sRGB">
<feFlood flood-opacity="0" result="BackgroundImageFix"/>
<feColorMatrix in="SourceAlpha" type="matrix" values="0 0 0 0 0 0 0 0 0 0 0 0 0 0 0 0 0 0 127 0" result="hardAlpha"/>
<feOffset dy="4"/>
<feGaussianBlur stdDeviation="2"/>
<feComposite in2="hardAlpha" operator="out"/>
<feColorMatrix type="matrix" values="0 0 0 0 0 0 0 0 0 0 0 0 0 0 0 0 0 0 0.25 0"/>
<feBlend mode="normal" in2="BackgroundImageFix" result="effect1_dropShadow_1106_6780"/>
<feBlend mode="normal" in="SourceGraphic" in2="effect1_dropShadow_1106_6780" result="shape"/>
</filter>
<clipPath id="clip0_1106_6780">
<rect width="372" height="440" fill="white" transform="translate(4)"/>
</clipPath>
</defs>
</svg>
